<svg xmlns="http://www.w3.org/2000/svg" width="920" height="550" viewBox="0 0 920 550">
<rect width="100%" height="100%" fill="white"/>
<text x="40" y="42" font-family="Arial, sans-serif" font-size="26" font-weight="700">Estados de afirmaciones</text>
<text x="40" y="70" font-family="Arial, sans-serif" font-size="15">Conteo de límites, afirmaciones apoyadas y afirmaciones no probadas</text>
<text x="40" y="118" font-family="Arial, sans-serif" font-size="15">Apoyado como límite</text>
<rect x="260" y="96" width="148" height="28" rx="4" fill="#444"/>
<text x="420" y="116" font-family="Arial, sans-serif" font-size="15" font-weight="700">2</text>
<text x="40" y="166" font-family="Arial, sans-serif" font-size="15">Síntesis provisional apoyada</text>
<rect x="260" y="144" width="74" height="28" rx="4" fill="#444"/>
<text x="346" y="164" font-family="Arial, sans-serif" font-size="15" font-weight="700">1</text>
<text x="40" y="214" font-family="Arial, sans-serif" font-size="15">Apoyado solo canal formal</text>
<rect x="260" y="192" width="74" height="28" rx="4" fill="#444"/>
<text x="346" y="212" font-family="Arial, sans-serif" font-size="15" font-weight="700">1</text>
<text x="40" y="262" font-family="Arial, sans-serif" font-size="15">Solo contexto</text>
<rect x="260" y="240" width="74" height="28" rx="4" fill="#444"/>
<text x="346" y="260" font-family="Arial, sans-serif" font-size="15" font-weight="700">1</text>
<text x="40" y="310" font-family="Arial, sans-serif" font-size="15">Contexto laboral</text>
<rect x="260" y="288" width="74" height="28" rx="4" fill="#444"/>
<text x="346" y="308" font-family="Arial, sans-serif" font-size="15" font-weight="700">1</text>
<text x="40" y="358" font-family="Arial, sans-serif" font-size="15">Contexto cercano, no prueba actual</text>
<rect x="260" y="336" width="74" height="28" rx="4" fill="#444"/>
<text x="346" y="356" font-family="Arial, sans-serif" font-size="15" font-weight="700">1</text>
<text x="40" y="406" font-family="Arial, sans-serif" font-size="15">Sigue sin probarse</text>
<rect x="260" y="384" width="297" height="28" rx="4" fill="#444"/>
<text x="569" y="404" font-family="Arial, sans-serif" font-size="15" font-weight="700">4</text>
<text x="40" y="454" font-family="Arial, sans-serif" font-size="15">Inferencia rechazada</text>
<rect x="260" y="432" width="520" height="28" rx="4" fill="#444"/>
<text x="792" y="452" font-family="Arial, sans-serif" font-size="15" font-weight="700">7</text>
<text x="40" y="522" font-family="Arial, sans-serif" font-size="13">North Star: Not collapse / not comfort / selective squeeze.</text>
</svg>